<svg id="Layer_1" data-name="Layer 1" xmlns="http://www.w3.org/2000/svg" xmlns:xlink="http://www.w3.org/1999/xlink" viewBox="0 0 202.57 177.25"><defs><style>.cls-1{fill:url(#linear-gradient);}.cls-2{fill:url(#linear-gradient-2);}</style><linearGradient id="linear-gradient" x1="25.32" y1="113.94" x2="202.57" y2="113.94" gradientUnits="userSpaceOnUse"><stop offset="0" stop-color="#00a8ff"/><stop offset="1" stop-color="#0651fe"/></linearGradient><linearGradient id="linear-gradient-2" x1="0" y1="63.3" x2="177.25" y2="63.3" xlink:href="#linear-gradient"/></defs><polygon class="cls-1" points="177.25 151.93 177.25 126.61 177.25 101.28 177.25 75.96 177.25 50.64 151.93 50.64 126.61 50.64 101.28 50.64 75.96 50.64 75.96 75.96 101.28 75.96 126.61 75.96 151.93 75.96 151.93 101.28 151.93 126.61 151.93 151.93 126.61 151.93 101.28 151.93 75.96 151.93 50.64 151.93 25.32 151.93 25.32 177.25 50.64 177.25 75.96 177.25 101.28 177.25 126.61 177.25 151.93 177.25 177.25 177.25 202.57 177.25 202.57 151.93 177.25 151.93"/><polygon class="cls-2" points="25.32 50.64 25.32 75.96 25.32 101.28 25.32 126.61 50.64 126.61 75.96 126.61 101.28 126.61 126.61 126.61 126.61 101.28 101.28 101.28 75.96 101.28 50.64 101.28 50.64 75.96 50.64 50.64 50.64 25.32 75.96 25.32 101.28 25.32 126.61 25.32 151.93 25.32 177.25 25.32 177.25 0 151.93 0 126.61 0 101.28 0 75.96 0 50.64 0 25.32 0 0 0 0 25.32 25.32 25.32 25.32 50.64"/></svg>