<svg id="Layer_1" data-name="Layer 1" xmlns="http://www.w3.org/2000/svg" viewBox="0 0 1199.28 185.86"><defs><style>.cls-1{fill:#fff;}</style></defs><polygon class="cls-1" points="177.25 160.53 177.25 135.21 177.25 109.89 177.25 84.57 177.25 59.25 151.93 59.25 126.61 59.25 101.28 59.25 75.96 59.25 75.96 84.57 101.28 84.57 126.61 84.57 151.93 84.57 151.93 109.89 151.93 135.21 151.93 160.53 126.61 160.53 101.28 160.53 75.96 160.53 50.64 160.53 25.32 160.53 25.32 185.86 50.64 185.86 75.96 185.86 101.28 185.86 126.61 185.86 151.93 185.86 177.25 185.86 202.57 185.86 202.57 160.53 177.25 160.53"/><polygon class="cls-1" points="25.32 59.25 25.32 84.57 25.32 109.89 25.32 135.21 50.64 135.21 75.96 135.21 101.28 135.21 126.61 135.21 126.61 109.89 101.28 109.89 75.96 109.89 50.64 109.89 50.64 84.57 50.64 59.25 50.64 33.93 75.96 33.93 101.28 33.93 126.61 33.93 151.93 33.93 177.25 33.93 177.25 8.61 151.93 8.61 126.61 8.61 101.28 8.61 75.96 8.61 50.64 8.61 25.32 8.61 0 8.61 0 33.93 25.32 33.93 25.32 59.25"/><path class="cls-1" d="M518.9,749v20.4H487.63V846.6h-26V797.13l17.24-27.75H430.23V749Z" transform="translate(-187.53 -700.55)"/><path class="cls-1" d="M552.81,826.19h52.7V846.6H527V749h78.1v20.4H552.81v18.06h47.86v18.94H552.81Z" transform="translate(-187.53 -700.55)"/><path class="cls-1" d="M613.14,797.86c0-26.13,14.24-51.38,52-51.38,34.94,0,48.74,13.95,50.79,42H689.33c-1.17-13.22-6.75-20.85-23.78-20.85-17.76,0-25.4,10.13-25.4,30.24,0,19.82,7.05,30.1,24.67,30.1,17.46,0,23.78-7.34,24.81-21.58h26.86C714.14,836.32,700.78,849,665,849,627.23,849,613.14,824.73,613.14,797.86Z" transform="translate(-187.53 -700.55)"/><path class="cls-1" d="M794.44,749h25.83V846.6H794.44V807.11H753.63V846.6H727.79V749h25.84v38h40.81Z" transform="translate(-187.53 -700.55)"/><path class="cls-1" d="M856.83,814.89c.73,8.07,6,15.41,19.67,15.41,12.48,0,17.17-4.4,17.17-11.15,0-6.46-3.81-9.69-11.15-10.72l-21.29-2.35c-17.62-2.05-27.75-12-27.75-28.62,0-18.35,13.8-31,42-31,30.09,0,42.13,14.39,43.45,31.71H893.38c-1-7.78-6.9-12.92-17.91-12.92-10,0-15.85,4-15.85,10.42,0,5,2.93,8.67,10.42,9.55l18.64,1.9c21.43,2.06,31.12,12.19,31.12,29.81,0,19.23-12,32.15-43.74,32.15-32.15,0-43.31-16.74-44.34-34.21Z" transform="translate(-187.53 -700.55)"/><path class="cls-1" d="M958.85,826.19h52.7V846.6H933V749h78.1v20.4H958.85v18.06h47.86v18.94H958.85Z" transform="translate(-187.53 -700.55)"/><path class="cls-1" d="M1099.92,749h24.67V846.6h-42.43L1055,782.89a108.78,108.78,0,0,1-4.7-13.8V846.6h-24.66V749h42.43l27.45,65a128.11,128.11,0,0,1,4.4,12.62Z" transform="translate(-187.53 -700.55)"/><path class="cls-1" d="M1161.14,814.89c.73,8.07,6,15.41,19.67,15.41,12.48,0,17.18-4.4,17.18-11.15,0-6.46-3.82-9.69-11.16-10.72l-21.29-2.35c-17.61-2.05-27.74-12-27.74-28.62,0-18.35,13.8-31,42-31,30.1,0,42.13,14.39,43.46,31.71h-25.55c-1-7.78-6.9-12.92-17.91-12.92-10,0-15.85,4-15.85,10.42,0,5,2.93,8.67,10.42,9.55l18.64,1.9c21.44,2.06,31.13,12.19,31.13,29.81,0,19.23-12,32.15-43.75,32.15-32.15,0-43.31-16.74-44.33-34.21Z" transform="translate(-187.53 -700.55)"/><path class="cls-1" d="M1263.16,826.19h52.7V846.6h-78.53V749h78.09v20.4h-52.26v18.06H1311v18.94h-47.86Z" transform="translate(-187.53 -700.55)"/><path class="cls-1" d="M1315.49,700.55h27.89v4h-11.69v33.19h-4.5V704.55h-11.7Z" transform="translate(-187.53 -700.55)"/><path class="cls-1" d="M1355.73,700.55l12.63,30.87h.44l12.64-30.87h5.37v37.19h-4.21V709.49h-.36l-11.62,28.25h-4.07l-11.62-28.25h-.37v28.25h-4.21V700.55Z" transform="translate(-187.53 -700.55)"/></svg>